<svg width="205" height="233" viewBox="0 0 205 233" fill="none" xmlns="http://www.w3.org/2000/svg">
<path d="M68.3334 0.400134C68.3334 0.933468 2.20002 197.067 1.00002 200.133C0.333357 201.867 7.80002 204.8 45.5334 217.467C70.4667 225.867 91 232.4 91.4 232C93.1334 229.867 204.467 44.9335 204.067 44.8001C202.867 43.8668 71.4 0.000134384 69.9334 0.000134384C69.1334 0.000134384 68.3334 0.133468 68.3334 0.400134ZM87.8 111.733C92.7334 114.267 103 124.4 103 126.667C103 127.2 99.4 130.4 95 133.867L87 140.133L82.3334 135.467C78.2 131.333 76.7334 130.667 71.2667 130.667C64.6 130.667 61.6667 132.267 61.6667 136C61.6667 139.467 65.4 142.133 77.2667 147.2C91.9334 153.467 98.4667 158 102.6 164.933C105.533 170 105.933 172 105.4 179.867C104.867 190.533 101.533 196.4 93.1334 201.867C85.5334 206.8 78.4667 208.4 67 207.733C54.7334 206.933 46.0667 202.933 37.9334 194.133C34.8667 190.8 32.3334 187.6 32.3334 187.067C32.4667 185.733 47.5334 174.667 49.4 174.667C50.0667 174.667 51 175.6 51.4 176.667C53 180.667 62.6 185.6 69.4 185.733C77.1334 186 80.3334 183.867 80.3334 178.533C80.3334 174.933 79.4 174.133 65.4 167.6C48.0667 159.333 43 155.467 39.1334 147.6C31.8 132.533 39.6667 116.4 57.5334 109.733C64.6 107.067 80.8667 108.133 87.8 111.733Z" fill="#273B4F"/>
</svg>
