<?xml version="1.0" standalone="no"?>
<!DOCTYPE svg PUBLIC "-//W3C//DTD SVG 20010904//EN"
 "http://www.w3.org/TR/2001/REC-SVG-20010904/DTD/svg10.dtd">
<svg version="1.0" xmlns="http://www.w3.org/2000/svg"
 width="234.000000pt" height="234.000000pt" viewBox="0 0 234.000000 234.000000"
 preserveAspectRatio="xMidYMid meet">

<g transform="translate(0.000000,234.000000) scale(0.100000,-0.100000)"
fill="#000000" stroke="none">
<path d="M910 2037 c0 -4 -496 -1475 -505 -1498 -5 -13 51 -35 334 -130 187
-63 341 -112 344 -109 13 16 848 1403 845 1404 -9 7 -995 336 -1006 336 -6 0
-12 -1 -12 -3z m146 -835 c37 -19 114 -95 114 -112 0 -4 -27 -28 -60 -54 l-60
-47 -35 35 c-31 31 -42 36 -83 36 -50 0 -72 -12 -72 -40 0 -26 28 -46 117 -84
110 -47 159 -81 190 -133 22 -38 25 -53 21 -112 -4 -80 -29 -124 -92 -165 -57
-37 -110 -49 -196 -44 -92 6 -157 36 -218 102 -23 25 -42 49 -42 53 1 10 114
93 128 93 5 0 12 -7 15 -15 12 -30 84 -67 135 -68 58 -2 82 14 82 54 0 27 -7
33 -112 82 -130 62 -168 91 -197 150 -55 113 4 234 138 284 53 20 175 12 227
-15z"/>
</g>
</svg>
