<svg width="1440" height="1072" viewBox="0 0 1440 1072" fill="none" xmlns="http://www.w3.org/2000/svg">
<g clip-path="url(#clip0_1371_13433)">
<g opacity="0.5">
<path d="M1195.9 135L1393.5 329.838V330.643L1195.08 135H1195.9Z" fill="#F0F0F0"/>
<path d="M1212.4 135L1393.5 313.57V314.375L1211.58 135H1212.4Z" fill="#F0F0F0"/>
<path d="M1228.9 135L1393.5 297.301V298.106L1228.08 135H1228.9Z" fill="#F0F0F0"/>
<path d="M1245.4 135L1393.5 281.032V281.837L1244.58 135H1245.4Z" fill="#F0F0F0"/>
<path d="M1261.9 135L1393.5 264.764V265.569L1261.08 135H1261.9Z" fill="#F0F0F0"/>
<path d="M1278.4 135L1393.5 248.495V249.3L1277.58 135H1278.4Z" fill="#F0F0F0"/>
<path d="M1294.9 135L1393.5 232.226V233.032L1294.08 135H1294.9Z" fill="#F0F0F0"/>
<path d="M1311.39 135L1393.5 215.958V216.763L1310.58 135H1311.39Z" fill="#F0F0F0"/>
<path d="M1327.89 135L1393.5 199.689V200.494L1327.08 135H1327.89Z" fill="#F0F0F0"/>
<path d="M1344.39 135L1393.5 183.42V184.226L1343.58 135H1344.39Z" fill="#F0F0F0"/>
<path d="M1360.89 135L1393.5 167.152V167.957L1360.08 135H1360.89Z" fill="#F0F0F0"/>
<path d="M1377.39 135L1393.5 150.883V151.688L1376.57 135H1377.39Z" fill="#F0F0F0"/>
<path d="M1393.5 135V135.42L1393.07 135H1393.5Z" fill="#F0F0F0"/>
<path d="M1179.4 135L1393.5 346.107V346.912L1178.58 135H1179.4Z" fill="#F0F0F0"/>
<path d="M1162.9 135L1393.5 362.375V363.181L1162.09 135H1162.9Z" fill="#F0F0F0"/>
<path d="M1146.4 135L1393.5 378.644V379.449L1145.59 135H1146.4Z" fill="#F0F0F0"/>
<path d="M1129.9 135L1393.5 394.912V395.718L1129.09 135H1129.9Z" fill="#F0F0F0"/>
<path d="M1113.4 135L1393.5 411.181V411.986L1112.59 135H1113.4Z" fill="#F0F0F0"/>
<path d="M1096.91 135L1393.5 427.45V428.255L1096.09 135H1096.91Z" fill="#F0F0F0"/>
<path d="M1080.41 135L1393.5 443.718V444.523L1079.59 135H1080.41Z" fill="#F0F0F0"/>
<path d="M1063.91 135L1393.5 459.987V460.792L1063.09 135H1063.91Z" fill="#F0F0F0"/>
<path d="M1393.5 476.659H1393.09L1047 135.403V135H1047.41L1393.5 476.256V476.659Z" fill="#F0F0F0"/>
<path d="M1376.59 476.659L1047 151.671V150.866L1377.41 476.659H1376.59Z" fill="#F0F0F0"/>
<path d="M1360.09 476.658L1047 167.94V167.135L1360.91 476.658H1360.09Z" fill="#F0F0F0"/>
<path d="M1343.59 476.659L1047 184.208V183.403L1344.41 476.659H1343.59Z" fill="#F0F0F0"/>
<path d="M1327.09 476.659L1047 200.477V199.672L1327.91 476.659H1327.09Z" fill="#F0F0F0"/>
<path d="M1310.6 476.659L1047 216.746V215.941L1311.41 476.659H1310.6Z" fill="#F0F0F0"/>
<path d="M1294.1 476.659L1047 233.015V232.209L1294.91 476.659H1294.1Z" fill="#F0F0F0"/>
<path d="M1277.6 476.659L1047 249.283V248.478L1278.41 476.659H1277.6Z" fill="#F0F0F0"/>
<path d="M1261.1 476.658L1047 265.551V264.746L1261.91 476.658H1261.1Z" fill="#F0F0F0"/>
<path d="M1244.6 476.659L1047 281.82V281.015L1245.42 476.659H1244.6Z" fill="#F0F0F0"/>
<path d="M1228.1 476.658L1047 298.089V297.283L1228.92 476.658H1228.1Z" fill="#F0F0F0"/>
<path d="M1211.6 476.659L1047 314.358V313.552L1212.42 476.659H1211.6Z" fill="#F0F0F0"/>
<path d="M1195.1 476.659L1047 330.626V329.821L1195.92 476.659H1195.1Z" fill="#F0F0F0"/>
<path d="M1178.6 476.659L1047 346.895V346.09L1179.42 476.659H1178.6Z" fill="#F0F0F0"/>
<path d="M1162.1 476.659L1047 363.163V362.358L1162.92 476.659H1162.1Z" fill="#F0F0F0"/>
<path d="M1145.6 476.659L1047 379.432V378.627L1146.42 476.659H1145.6Z" fill="#F0F0F0"/>
<path d="M1129.1 476.659L1047 395.701V394.896L1129.92 476.659H1129.1Z" fill="#F0F0F0"/>
<path d="M1112.61 476.658L1047 411.969V411.164L1113.42 476.658H1112.61Z" fill="#F0F0F0"/>
<path d="M1096.11 476.659L1047 428.238V427.433L1096.92 476.659H1096.11Z" fill="#F0F0F0"/>
<path d="M1079.61 476.659L1047 444.507V443.701L1080.42 476.659H1079.61Z" fill="#F0F0F0"/>
<path d="M1063.11 476.659L1047 460.775V459.97L1063.92 476.659H1063.11Z" fill="#F0F0F0"/>
<path d="M1047 476.659V476.239L1047.43 476.659H1047Z" fill="#F0F0F0"/>
<path d="M1204.27 135L1393.5 321.581V322.386L1203.46 135H1204.27Z" fill="#F0F0F0"/>
<path d="M1220.77 135L1393.5 305.313V306.118L1219.96 135H1220.77Z" fill="#F0F0F0"/>
<path d="M1237.27 135L1393.5 289.044V289.849L1236.46 135H1237.27Z" fill="#F0F0F0"/>
<path d="M1253.77 135L1393.5 272.775V273.58L1252.96 135H1253.77Z" fill="#F0F0F0"/>
<path d="M1270.27 135L1393.5 256.507V257.312L1269.45 135H1270.27Z" fill="#F0F0F0"/>
<path d="M1286.77 135L1393.5 240.238V241.044L1285.95 135H1286.77Z" fill="#F0F0F0"/>
<path d="M1303.27 135L1393.5 223.969V224.775L1302.45 135H1303.27Z" fill="#F0F0F0"/>
<path d="M1319.77 135L1393.5 207.701V208.506L1318.95 135H1319.77Z" fill="#F0F0F0"/>
<path d="M1336.27 135L1393.5 191.433V192.238L1335.45 135H1336.27Z" fill="#F0F0F0"/>
<path d="M1352.77 135L1393.5 175.164V175.969L1351.95 135H1352.77Z" fill="#F0F0F0"/>
<path d="M1369.27 135L1393.5 158.895V159.7L1368.45 135H1369.27Z" fill="#F0F0F0"/>
<path d="M1385.77 135L1393.5 142.627V143.432L1384.95 135H1385.77Z" fill="#F0F0F0"/>
<path d="M1187.78 135L1393.5 337.85V338.655L1186.96 135H1187.78Z" fill="#F0F0F0"/>
<path d="M1171.28 135L1393.5 354.119V354.924L1170.46 135H1171.28Z" fill="#F0F0F0"/>
<path d="M1154.78 135L1393.5 370.387V371.192L1153.96 135H1154.78Z" fill="#F0F0F0"/>
<path d="M1138.28 135L1393.5 386.656V387.461L1137.46 135H1138.28Z" fill="#F0F0F0"/>
<path d="M1121.78 135L1393.5 402.924V403.73L1120.96 135H1121.78Z" fill="#F0F0F0"/>
<path d="M1105.28 135L1393.5 419.193V419.998L1104.46 135H1105.28Z" fill="#F0F0F0"/>
<path d="M1088.78 135L1393.5 435.462V436.267L1087.96 135H1088.78Z" fill="#F0F0F0"/>
<path d="M1072.28 135L1393.5 451.731V452.536L1071.46 135H1072.28Z" fill="#F0F0F0"/>
<path d="M1055.78 135L1393.5 467.999V468.804L1054.97 135H1055.78Z" fill="#F0F0F0"/>
<path d="M1384.97 476.659L1047 143.415V142.61L1385.78 476.659H1384.97Z" fill="#F0F0F0"/>
<path d="M1368.47 476.659L1047 159.683V158.878L1369.28 476.659H1368.47Z" fill="#F0F0F0"/>
<path d="M1351.97 476.658L1047 175.951V175.146L1352.78 476.658H1351.97Z" fill="#F0F0F0"/>
<path d="M1335.47 476.658L1047 192.22V191.415L1336.29 476.658H1335.47Z" fill="#F0F0F0"/>
<path d="M1318.97 476.659L1047 208.489V207.684L1319.79 476.659H1318.97Z" fill="#F0F0F0"/>
<path d="M1302.47 476.658L1047 224.757V223.952L1303.29 476.658H1302.47Z" fill="#F0F0F0"/>
<path d="M1285.97 476.658L1047 241.026V240.221L1286.79 476.658H1285.97Z" fill="#F0F0F0"/>
<path d="M1269.47 476.659L1047 257.295V256.49L1270.29 476.659H1269.47Z" fill="#F0F0F0"/>
<path d="M1252.97 476.658L1047 273.563V272.758L1253.79 476.658H1252.97Z" fill="#F0F0F0"/>
<path d="M1236.47 476.659L1047 289.832V289.027L1237.29 476.659H1236.47Z" fill="#F0F0F0"/>
<path d="M1219.97 476.659L1047 306.101V305.296L1220.79 476.659H1219.97Z" fill="#F0F0F0"/>
<path d="M1203.48 476.659L1047 322.369V321.564L1204.29 476.659H1203.48Z" fill="#F0F0F0"/>
<path d="M1186.98 476.658L1047 338.638V337.833L1187.79 476.658H1186.98Z" fill="#F0F0F0"/>
<path d="M1170.48 476.659L1047 354.907V354.102L1171.29 476.659H1170.48Z" fill="#F0F0F0"/>
<path d="M1153.98 476.659L1047 371.175V370.37L1154.79 476.659H1153.98Z" fill="#F0F0F0"/>
<path d="M1137.48 476.659L1047 387.444V386.638L1138.3 476.659H1137.48Z" fill="#F0F0F0"/>
<path d="M1120.98 476.659L1047 403.713V402.907L1121.8 476.659H1120.98Z" fill="#F0F0F0"/>
<path d="M1104.48 476.658L1047 419.981V419.176L1105.3 476.658H1104.48Z" fill="#F0F0F0"/>
<path d="M1087.98 476.659L1047 436.249V435.444L1088.8 476.659H1087.98Z" fill="#F0F0F0"/>
<path d="M1071.48 476.659L1047 452.518V451.713L1072.3 476.659H1071.48Z" fill="#F0F0F0"/>
<path d="M1054.98 476.658L1047 468.787V467.982L1055.8 476.658H1054.98Z" fill="#F0F0F0"/>
</g>
<rect x="12" y="30" width="180" height="158" fill="#FEDA79"/>
<rect x="132" y="168" width="180" height="158" fill="#FEDA79"/>
<g opacity="0.5">
<path d="M67.9233 -67L312 157.687V158.615L66.9148 -67H67.9233Z" fill="#DFDDD9"/>
<path d="M88.3029 -67L312 138.926V139.854L87.2944 -67H88.3029Z" fill="#DFDDD9"/>
<path d="M108.683 -67L312 120.165V121.094L107.675 -67H108.683Z" fill="#DFDDD9"/>
<path d="M129.063 -67L312 101.404V102.332L128.054 -67H129.063Z" fill="#DFDDD9"/>
<path d="M149.443 -67L312 82.6432V83.5716L148.434 -67H149.443Z" fill="#DFDDD9"/>
<path d="M169.823 -67L312 63.8824V64.8109L168.814 -67H169.823Z" fill="#DFDDD9"/>
<path d="M190.203 -67L312 45.121V46.0501L189.194 -67H190.203Z" fill="#DFDDD9"/>
<path d="M210.583 -67L312 26.3603V27.2887L209.574 -67H210.583Z" fill="#DFDDD9"/>
<path d="M230.963 -67L312 7.59957V8.528L229.954 -67H230.963Z" fill="#DFDDD9"/>
<path d="M47.5436 -67L312 176.448V177.377L46.5351 -67H47.5436Z" fill="#DFDDD9"/>
<path d="M27.1638 -67L312 195.209V196.137L26.1545 -67H27.1638Z" fill="#DFDDD9"/>
<path d="M6.78431 -67L312 213.97V214.898L5.77502 -67H6.78431Z" fill="#DFDDD9"/>
<path d="M-13.5963 -67L312 232.73V233.66L-14.6048 -67H-13.5963Z" fill="#DFDDD9"/>
<path d="M-33.9767 -67L312 251.492V252.42L-34.9853 -67H-33.9767Z" fill="#DFDDD9"/>
<path d="M-54.3563 -67L312 270.253V271.181L-55.3649 -67H-54.3563Z" fill="#DFDDD9"/>
<path d="M-74.7361 -67L312 289.013V289.942L-75.7447 -67H-74.7361Z" fill="#DFDDD9"/>
<path d="M-95.1156 -67L312 307.775V308.703L-96.1242 -67H-95.1156Z" fill="#DFDDD9"/>
<path d="M312 327H311.495L-116 -66.5354V-67H-115.495L312 326.535V327Z" fill="#DFDDD9"/>
<path d="M291.116 327L-116 -47.7747V-48.7031L292.124 327H291.116Z" fill="#DFDDD9"/>
<path d="M270.736 327L-116 -29.014V-29.9424L271.744 327H270.736Z" fill="#DFDDD9"/>
<path d="M250.355 327L-116 -10.2532V-11.1816L251.364 327H250.355Z" fill="#DFDDD9"/>
<path d="M229.976 327L-116 8.50802V7.57959L230.984 327H229.976Z" fill="#DFDDD9"/>
<path d="M209.595 327L-116 27.269V26.3406L210.605 327H209.595Z" fill="#DFDDD9"/>
<path d="M189.216 327L-116 46.0304V45.1013L190.224 327H189.216Z" fill="#DFDDD9"/>
<path d="M168.836 327L-116 64.791V63.8625L169.845 327H168.836Z" fill="#DFDDD9"/>
<path d="M148.456 327L-116 83.5517V82.6233L149.465 327H148.456Z" fill="#DFDDD9"/>
<path d="M128.076 327L-116 102.312V101.384L129.085 327H128.076Z" fill="#DFDDD9"/>
<path d="M107.696 327L-116 121.074V120.145L108.705 327H107.696Z" fill="#DFDDD9"/>
<path d="M87.3166 327L-116 139.835V138.906L88.3251 327H87.3166Z" fill="#DFDDD9"/>
<path d="M66.9362 327L-116 158.595V157.667L67.9455 327H66.9362Z" fill="#DFDDD9"/>
<path d="M46.5565 327L-116 177.357V176.428L47.565 327H46.5565Z" fill="#DFDDD9"/>
<path d="M26.1768 327L-116 196.118V195.189L27.1854 327H26.1768Z" fill="#DFDDD9"/>
<path d="M5.79718 327L-116 214.878V213.95L6.80571 327H5.79718Z" fill="#DFDDD9"/>
<path d="M78.2665 -67L312 148.165V149.094L77.2579 -67H78.2665Z" fill="#DFDDD9"/>
<path d="M98.6466 -67L312 129.404V130.333L97.6373 -67H98.6466Z" fill="#DFDDD9"/>
<path d="M119.027 -67L312 110.644V111.572L118.018 -67H119.027Z" fill="#DFDDD9"/>
<path d="M139.406 -67L312 91.8822V92.8107L138.398 -67H139.406Z" fill="#DFDDD9"/>
<path d="M159.787 -67L312 73.1215V74.05L158.777 -67H159.787Z" fill="#DFDDD9"/>
<path d="M180.166 -67L312 54.3608V55.2892L179.158 -67H180.166Z" fill="#DFDDD9"/>
<path d="M200.546 -67L312 35.5994V36.5278L199.538 -67H200.546Z" fill="#DFDDD9"/>
<path d="M220.926 -67L312 16.8386V17.7671L219.918 -67H220.926Z" fill="#DFDDD9"/>
<path d="M57.8867 -67L312 166.927V167.855L56.8782 -67H57.8867Z" fill="#DFDDD9"/>
<path d="M37.5073 -67L312 185.687V186.616L36.498 -67H37.5073Z" fill="#DFDDD9"/>
<path d="M17.1267 -67L312 204.448V205.376L16.1182 -67H17.1267Z" fill="#DFDDD9"/>
<path d="M-3.2531 -67L312 223.209V224.138L-4.26165 -67H-3.2531Z" fill="#DFDDD9"/>
<path d="M-23.6324 -67L312 241.969V242.898L-24.6417 -67H-23.6324Z" fill="#DFDDD9"/>
<path d="M-44.0123 -67L312 260.731V261.659L-45.0216 -67H-44.0123Z" fill="#DFDDD9"/>
<path d="M-64.3929 -67L312 279.492V280.421L-65.4014 -67H-64.3929Z" fill="#DFDDD9"/>
<path d="M-84.7723 -67L312 298.253V299.181L-85.7809 -67H-84.7723Z" fill="#DFDDD9"/>
<path d="M-105.152 -67L312 317.014V317.942L-106.161 -67H-105.152Z" fill="#DFDDD9"/>
<path d="M301.459 327L-116 -57.2964V-58.2249L302.467 327H301.459Z" fill="#DFDDD9"/>
<path d="M281.079 327L-116 -38.5357V-39.4641L282.088 327H281.079Z" fill="#DFDDD9"/>
<path d="M260.699 327L-116 -19.7749V-20.7034L261.707 327H260.699Z" fill="#DFDDD9"/>
<path d="M240.319 327L-116 -1.01347V-1.94189L241.328 327H240.319Z" fill="#DFDDD9"/>
<path d="M219.939 327L-116 17.7473V16.8188L220.948 327H219.939Z" fill="#DFDDD9"/>
<path d="M199.559 327L-116 36.508V35.5796L200.568 327H199.559Z" fill="#DFDDD9"/>
<path d="M179.179 327L-116 55.2692V54.3408L180.188 327H179.179Z" fill="#DFDDD9"/>
<path d="M158.8 327L-116 74.0302V73.1018L159.808 327H158.8Z" fill="#DFDDD9"/>
<path d="M138.419 327L-116 92.7907V91.8623L139.428 327H138.419Z" fill="#DFDDD9"/>
<path d="M118.04 327L-116 111.552V110.624L119.048 327H118.04Z" fill="#DFDDD9"/>
<path d="M97.6599 327L-116 130.313V129.385L98.6684 327H97.6599Z" fill="#DFDDD9"/>
<path d="M77.2795 327L-116 149.074V148.145L78.2888 327H77.2795Z" fill="#DFDDD9"/>
<path d="M56.8998 327L-116 167.835V166.907L57.9083 327H56.8998Z" fill="#DFDDD9"/>
<path d="M36.5202 327L-116 186.596V185.667L37.5287 327H36.5202Z" fill="#DFDDD9"/>
<path d="M16.1397 327L-116 205.357V204.428L17.149 327H16.1397Z" fill="#DFDDD9"/>
</g>
<g opacity="0.5">
<path d="M709.701 599L1126 1009.48V1011.18L707.981 599H709.701Z" fill="#DFDDD9"/>
<path d="M744.46 599L1126 975.207V976.903L742.74 599H744.46Z" fill="#DFDDD9"/>
<path d="M779.221 599L1126 940.933V942.629L777.501 599H779.221Z" fill="#DFDDD9"/>
<path d="M813.981 599L1126 906.658V908.354L812.261 599H813.981Z" fill="#DFDDD9"/>
<path d="M848.742 599L1126 872.384V874.08L847.021 599H848.742Z" fill="#DFDDD9"/>
<path d="M883.502 599L1126 838.11V839.806L881.782 599H883.502Z" fill="#DFDDD9"/>
<path d="M918.261 599L1126 803.834V805.532L916.541 599H918.261Z" fill="#DFDDD9"/>
<path d="M953.022 599L1126 769.56V771.256L951.302 599H953.022Z" fill="#DFDDD9"/>
<path d="M987.782 599L1126 735.286V736.982L986.062 599H987.782Z" fill="#DFDDD9"/>
<path d="M1022.54 599L1126 701.011V702.708L1020.82 599H1022.54Z" fill="#DFDDD9"/>
<path d="M1057.3 599L1126 666.737V668.433L1055.58 599H1057.3Z" fill="#DFDDD9"/>
<path d="M1092.06 599L1126 632.463V634.159L1090.34 599H1092.06Z" fill="#DFDDD9"/>
<path d="M1126 599V599.885L1125.1 599H1126Z" fill="#DFDDD9"/>
<path d="M674.941 599L1126 1043.76V1045.45L673.221 599H674.941Z" fill="#DFDDD9"/>
<path d="M640.181 599L1126 1078.03V1079.73L638.46 599H640.181Z" fill="#DFDDD9"/>
<path d="M605.422 599L1126 1112.3V1114L603.7 599H605.422Z" fill="#DFDDD9"/>
<path d="M570.661 599L1126 1146.58V1148.28L568.94 599H570.661Z" fill="#DFDDD9"/>
<path d="M535.899 599L1126 1180.85V1182.55L534.179 599H535.899Z" fill="#DFDDD9"/>
<path d="M501.14 599L1126 1215.13V1216.82L499.42 599H501.14Z" fill="#DFDDD9"/>
<path d="M466.38 599L1126 1249.4V1251.1L464.66 599H466.38Z" fill="#DFDDD9"/>
<path d="M431.621 599L1126 1283.68V1285.37L429.901 599H431.621Z" fill="#DFDDD9"/>
<path d="M1126 1318.8H1125.14L396 599.849V599H396.861L1126 1317.95V1318.8Z" fill="#DFDDD9"/>
<path d="M1090.38 1318.8L396 634.123V632.427L1092.1 1318.8H1090.38Z" fill="#DFDDD9"/>
<path d="M1055.62 1318.8L396 668.397V666.701L1057.34 1318.8H1055.62Z" fill="#DFDDD9"/>
<path d="M1020.86 1318.8L396 702.671V700.975L1022.58 1318.8H1020.86Z" fill="#DFDDD9"/>
<path d="M986.099 1318.8L396 736.946V735.25L987.819 1318.8H986.099Z" fill="#DFDDD9"/>
<path d="M951.338 1318.8L396 771.22V769.524L953.059 1318.8H951.338Z" fill="#DFDDD9"/>
<path d="M916.578 1318.8L396 805.495V803.798L918.298 1318.8H916.578Z" fill="#DFDDD9"/>
<path d="M881.818 1318.8L396 839.77V838.073L883.539 1318.8H881.818Z" fill="#DFDDD9"/>
<path d="M847.059 1318.8L396 874.044V872.347L848.779 1318.8H847.059Z" fill="#DFDDD9"/>
<path d="M812.298 1318.8L396 908.318V906.622L814.019 1318.8H812.298Z" fill="#DFDDD9"/>
<path d="M777.538 1318.8L396 942.593V940.896L779.258 1318.8H777.538Z" fill="#DFDDD9"/>
<path d="M742.778 1318.8L396 976.867V975.171L744.498 1318.8H742.778Z" fill="#DFDDD9"/>
<path d="M708.017 1318.8L396 1011.14V1009.44L709.739 1318.8H708.017Z" fill="#DFDDD9"/>
<path d="M673.258 1318.8L396 1045.42V1043.72L674.978 1318.8H673.258Z" fill="#DFDDD9"/>
<path d="M727.342 599L1126 992.086V993.782L725.622 599H727.342Z" fill="#DFDDD9"/>
<path d="M762.103 599L1126 957.812V959.508L760.382 599H762.103Z" fill="#DFDDD9"/>
<path d="M796.863 599L1126 923.538V925.234L795.143 599H796.863Z" fill="#DFDDD9"/>
<path d="M831.623 599L1126 889.263V890.959L829.903 599H831.623Z" fill="#DFDDD9"/>
<path d="M866.384 599L1126 854.989V856.685L864.662 599H866.384Z" fill="#DFDDD9"/>
<path d="M901.143 599L1126 820.715V822.411L899.423 599H901.143Z" fill="#DFDDD9"/>
<path d="M935.903 599L1126 786.439V788.135L934.183 599H935.903Z" fill="#DFDDD9"/>
<path d="M970.664 599L1126 752.165V753.861L968.944 599H970.664Z" fill="#DFDDD9"/>
<path d="M1005.42 599L1126 717.891V719.587L1003.7 599H1005.42Z" fill="#DFDDD9"/>
<path d="M1040.18 599L1126 683.616V685.313L1038.46 599H1040.18Z" fill="#DFDDD9"/>
<path d="M1074.94 599L1126 649.342V651.038L1073.22 599H1074.94Z" fill="#DFDDD9"/>
<path d="M1109.7 599L1126 615.068V616.764L1107.98 599H1109.7Z" fill="#DFDDD9"/>
<path d="M692.582 599L1126 1026.36V1028.06L690.862 599H692.582Z" fill="#DFDDD9"/>
<path d="M657.823 599L1126 1060.64V1062.33L656.102 599H657.823Z" fill="#DFDDD9"/>
<path d="M623.062 599L1126 1094.91V1096.61L621.342 599H623.062Z" fill="#DFDDD9"/>
<path d="M588.302 599L1126 1129.18V1130.88L586.582 599H588.302Z" fill="#DFDDD9"/>
<path d="M553.543 599L1126 1163.46V1165.15L551.821 599H553.543Z" fill="#DFDDD9"/>
<path d="M518.783 599L1126 1197.73V1199.43L517.061 599H518.783Z" fill="#DFDDD9"/>
<path d="M484.022 599L1126 1232.01V1233.7L482.301 599H484.022Z" fill="#DFDDD9"/>
<path d="M449.262 599L1126 1266.28V1267.98L447.542 599H449.262Z" fill="#DFDDD9"/>
<path d="M414.502 599L1126 1300.56V1302.25L412.781 599H414.502Z" fill="#DFDDD9"/>
<path d="M1108.02 1318.8L396 616.728V615.031L1109.74 1318.8H1108.02Z" fill="#DFDDD9"/>
<path d="M1073.26 1318.8L396 651.002V649.306L1074.98 1318.8H1073.26Z" fill="#DFDDD9"/>
<path d="M1038.5 1318.8L396 685.276V683.58L1040.22 1318.8H1038.5Z" fill="#DFDDD9"/>
<path d="M1003.74 1318.8L396 719.551V717.855L1005.46 1318.8H1003.74Z" fill="#DFDDD9"/>
<path d="M968.981 1318.8L396 753.825V752.129L970.701 1318.8H968.981Z" fill="#DFDDD9"/>
<path d="M934.22 1318.8L396 788.099V786.403L935.94 1318.8H934.22Z" fill="#DFDDD9"/>
<path d="M899.46 1318.8L396 822.374V820.678L901.18 1318.8H899.46Z" fill="#DFDDD9"/>
<path d="M864.7 1318.8L396 856.649V854.952L866.42 1318.8H864.7Z" fill="#DFDDD9"/>
<path d="M829.939 1318.8L396 890.922V889.226L831.661 1318.8H829.939Z" fill="#DFDDD9"/>
<path d="M795.18 1318.8L396 925.198V923.502L796.9 1318.8H795.18Z" fill="#DFDDD9"/>
<path d="M760.42 1318.8L396 959.472V957.776L762.14 1318.8H760.42Z" fill="#DFDDD9"/>
<path d="M725.659 1318.8L396 993.746V992.05L727.38 1318.8H725.659Z" fill="#DFDDD9"/>
<path d="M690.899 1318.8L396 1028.02V1026.32L692.619 1318.8H690.899Z" fill="#DFDDD9"/>
<path d="M656.139 1318.8L396 1062.3V1060.6L657.86 1318.8H656.139Z" fill="#DFDDD9"/>
</g>
</g>
<defs>
<clipPath id="clip0_1371_13433">
<rect width="1440" height="1072" fill="white"/>
</clipPath>
</defs>
</svg>
