<svg width="412" height="2088" viewBox="0 0 412 2088" fill="none" xmlns="http://www.w3.org/2000/svg">
<rect x="-72" y="-35" width="106.2" height="93.22" fill="#FEDA79"/>
<rect x="-1.19995" y="-18" width="106.2" height="93.22" fill="#FEDA79"/>
<g opacity="0.5">
<path d="M177.048 235.142L412 459.829V460.757L176.077 235.142H177.048Z" fill="#F0F0F0"/>
<path d="M196.666 235.142L412 441.068V441.996L195.695 235.142H196.666Z" fill="#F0F0F0"/>
<path d="M216.284 235.142L412 422.307V423.236L215.313 235.142H216.284Z" fill="#F0F0F0"/>
<path d="M235.901 235.142L411.999 403.546V404.474L234.93 235.142H235.901Z" fill="#F0F0F0"/>
<path d="M255.52 235.142L412 384.785V385.713L254.549 235.142H255.52Z" fill="#F0F0F0"/>
<path d="M275.138 235.142L412 366.024V366.953L274.167 235.142H275.138Z" fill="#F0F0F0"/>
<path d="M294.756 235.142L412 347.263V348.192L293.785 235.142H294.756Z" fill="#F0F0F0"/>
<path d="M314.374 235.142L412 328.502V329.431L313.403 235.142H314.374Z" fill="#F0F0F0"/>
<path d="M333.992 235.142L412 309.741V310.67L333.021 235.142H333.992Z" fill="#F0F0F0"/>
<path d="M353.61 235.142L412 290.98V291.909L352.639 235.142H353.61Z" fill="#F0F0F0"/>
<path d="M373.229 235.142L412 272.219V273.148L372.257 235.142H373.229Z" fill="#F0F0F0"/>
<path d="M392.846 235.142L412 253.459V254.387L391.876 235.142H392.846Z" fill="#F0F0F0"/>
<path d="M412 235.142V235.626L411.493 235.142H412Z" fill="#F0F0F0"/>
<path d="M157.43 235.142L412 478.59V479.518L156.459 235.142H157.43Z" fill="#F0F0F0"/>
<path d="M137.812 235.142L412 497.351V498.279L136.841 235.142H137.812Z" fill="#F0F0F0"/>
<path d="M118.194 235.142L412 516.111V517.04L117.222 235.142H118.194Z" fill="#F0F0F0"/>
<path d="M98.5756 235.142L412 534.872V535.801L97.6047 235.142H98.5756Z" fill="#F0F0F0"/>
<path d="M78.9567 235.142L411.999 553.634V554.562L77.9858 235.142H78.9567Z" fill="#F0F0F0"/>
<path d="M59.339 235.142L412 572.394V573.323L58.3682 235.142H59.339Z" fill="#F0F0F0"/>
<path d="M39.7213 235.142L412 591.155V592.083L38.7505 235.142H39.7213Z" fill="#F0F0F0"/>
<path d="M20.1039 235.142L412 609.916V610.845L19.1331 235.142H20.1039Z" fill="#F0F0F0"/>
<path d="M412 629.142H411.514L0 235.606V235.142H0.485777L412 628.677V629.142Z" fill="#F0F0F0"/>
<path d="M391.896 629.142L0 254.367V253.439L392.867 629.142H391.896Z" fill="#F0F0F0"/>
<path d="M372.278 629.142L0 273.128V272.199L373.249 629.142H372.278Z" fill="#F0F0F0"/>
<path d="M352.66 629.142L0 291.889V290.96L353.631 629.142H352.66Z" fill="#F0F0F0"/>
<path d="M333.042 629.142L0 310.65V309.722L334.013 629.142H333.042Z" fill="#F0F0F0"/>
<path d="M313.424 629.142L0 329.411V328.482L314.395 629.142H313.424Z" fill="#F0F0F0"/>
<path d="M293.806 629.142L0 348.172V347.243L294.777 629.142H293.806Z" fill="#F0F0F0"/>
<path d="M274.188 629.142L0 366.933V366.004L275.159 629.142H274.188Z" fill="#F0F0F0"/>
<path d="M254.57 629.142L0 385.694V384.765L255.541 629.142H254.57Z" fill="#F0F0F0"/>
<path d="M234.952 629.142L0 404.454V403.526L235.923 629.142H234.952Z" fill="#F0F0F0"/>
<path d="M215.334 629.141L0 423.215V422.286L216.305 629.141H215.334Z" fill="#F0F0F0"/>
<path d="M195.716 629.142L0 441.977V441.048L196.687 629.142H195.716Z" fill="#F0F0F0"/>
<path d="M176.097 629.142L0 460.737V459.809L177.069 629.142H176.097Z" fill="#F0F0F0"/>
<path d="M156.48 629.142L0 479.498V478.57L157.45 629.142H156.48Z" fill="#F0F0F0"/>
<path d="M136.862 629.142L0 498.259V497.331L137.833 629.142H136.862Z" fill="#F0F0F0"/>
<path d="M117.244 629.142L0 517.02V516.092L118.215 629.142H117.244Z" fill="#F0F0F0"/>
<path d="M97.6255 629.142L0 535.781V534.853L98.5963 629.142H97.6255Z" fill="#F0F0F0"/>
<path d="M78.0077 629.142L0 554.542V553.614L78.9785 629.142H78.0077Z" fill="#F0F0F0"/>
<path d="M58.3891 629.142L0 573.303V572.374L59.3607 629.142H58.3891Z" fill="#F0F0F0"/>
<path d="M38.7713 629.142L0 592.064V591.135L39.7421 629.142H38.7713Z" fill="#F0F0F0"/>
<path d="M19.1535 629.142L0 610.825V609.897L20.1243 629.142H19.1535Z" fill="#F0F0F0"/>
<path d="M0 629.142V628.657L0.506525 629.142H0Z" fill="#F0F0F0"/>
<path d="M187.004 235.142L412 450.307V451.235L186.033 235.142H187.004Z" fill="#F0F0F0"/>
<path d="M206.622 235.142L412 431.546V432.475L205.651 235.142H206.622Z" fill="#F0F0F0"/>
<path d="M226.241 235.142L412 412.785V413.714L225.27 235.142H226.241Z" fill="#F0F0F0"/>
<path d="M245.859 235.142L412 394.024V394.952L244.888 235.142H245.859Z" fill="#F0F0F0"/>
<path d="M265.477 235.142L412 375.263V376.192L264.505 235.142H265.477Z" fill="#F0F0F0"/>
<path d="M285.095 235.142L412 356.503V357.431L284.124 235.142H285.095Z" fill="#F0F0F0"/>
<path d="M304.713 235.142L412 337.741V338.67L303.742 235.142H304.713Z" fill="#F0F0F0"/>
<path d="M324.331 235.142L412 318.98V319.909L323.36 235.142H324.331Z" fill="#F0F0F0"/>
<path d="M343.949 235.142L412 300.22V301.148L342.978 235.142H343.949Z" fill="#F0F0F0"/>
<path d="M363.567 235.142L412 281.458V282.387L362.596 235.142H363.567Z" fill="#F0F0F0"/>
<path d="M383.185 235.142L412 262.698V263.626L382.214 235.142H383.185Z" fill="#F0F0F0"/>
<path d="M402.803 235.142L412 243.937V244.865L401.832 235.142H402.803Z" fill="#F0F0F0"/>
<path d="M167.386 235.142L412 469.068V469.997L166.416 235.142H167.386Z" fill="#F0F0F0"/>
<path d="M147.769 235.142L412 487.829V488.757L146.797 235.142H147.769Z" fill="#F0F0F0"/>
<path d="M128.15 235.142L412 506.59V507.518L127.179 235.142H128.15Z" fill="#F0F0F0"/>
<path d="M108.532 235.142L412 525.35V526.28L107.561 235.142H108.532Z" fill="#F0F0F0"/>
<path d="M88.9147 235.142L412 544.111V545.04L87.9431 235.142H88.9147Z" fill="#F0F0F0"/>
<path d="M69.2967 235.142L412 562.873V563.801L68.3252 235.142H69.2967Z" fill="#F0F0F0"/>
<path d="M49.6779 235.142L412 581.634V582.562L48.707 235.142H49.6779Z" fill="#F0F0F0"/>
<path d="M30.0602 235.142L412 600.395V601.323L29.0894 235.142H30.0602Z" fill="#F0F0F0"/>
<path d="M10.4425 235.142L412 619.155V620.084L9.47095 235.142H10.4425Z" fill="#F0F0F0"/>
<path d="M401.853 629.142L0 244.845V243.917L402.824 629.142H401.853Z" fill="#F0F0F0"/>
<path d="M382.235 629.142L0 263.606V262.678L383.206 629.142H382.235Z" fill="#F0F0F0"/>
<path d="M362.617 629.142L0 282.367V281.438L363.587 629.142H362.617Z" fill="#F0F0F0"/>
<path d="M342.999 629.142L0 301.128V300.2L343.97 629.142H342.999Z" fill="#F0F0F0"/>
<path d="M323.381 629.142L0 319.889V318.961L324.352 629.142H323.381Z" fill="#F0F0F0"/>
<path d="M303.762 629.142L0 338.65V337.721L304.733 629.142H303.762Z" fill="#F0F0F0"/>
<path d="M284.145 629.142L0 357.411V356.483L285.115 629.142H284.145Z" fill="#F0F0F0"/>
<path d="M264.527 629.142L0 376.172V375.244L265.498 629.142H264.527Z" fill="#F0F0F0"/>
<path d="M244.908 629.142L0 394.933V394.004L245.88 629.142H244.908Z" fill="#F0F0F0"/>
<path d="M225.29 629.142L0 413.694V412.766L226.261 629.142H225.29Z" fill="#F0F0F0"/>
<path d="M205.673 629.142L0 432.455V431.526L206.643 629.142H205.673Z" fill="#F0F0F0"/>
<path d="M186.054 629.142L0 451.216V450.287L187.026 629.142H186.054Z" fill="#F0F0F0"/>
<path d="M166.436 629.142L0 469.977V469.049L167.407 629.142H166.436Z" fill="#F0F0F0"/>
<path d="M146.818 629.142L0 488.738V487.809L147.789 629.142H146.818Z" fill="#F0F0F0"/>
<path d="M127.2 629.142L0 507.498V506.57L128.171 629.142H127.2Z" fill="#F0F0F0"/>
<path d="M107.582 629.142L0 526.26V525.331L108.553 629.142H107.582Z" fill="#F0F0F0"/>
<path d="M87.9643 629.142L0 545.021V544.092L88.9351 629.142H87.9643Z" fill="#F0F0F0"/>
<path d="M68.3465 629.142L0 563.781V562.853L69.3173 629.142H68.3465Z" fill="#F0F0F0"/>
<path d="M48.728 629.142L0 582.542V581.614L49.6988 629.142H48.728Z" fill="#F0F0F0"/>
<path d="M29.1101 629.142L0 601.303V600.375L30.081 629.142H29.1101Z" fill="#F0F0F0"/>
<path d="M9.49233 629.142L0 620.064V619.136L10.4632 629.142H9.49233Z" fill="#F0F0F0"/>
</g>
<g opacity="0.5">
<path d="M177.048 1459L412 1683.69V1684.62L176.077 1459H177.048Z" fill="#F0F0F0"/>
<path d="M196.666 1459L412 1664.93V1665.85L195.695 1459H196.666Z" fill="#F0F0F0"/>
<path d="M216.284 1459L412 1646.17V1647.09L215.313 1459H216.284Z" fill="#F0F0F0"/>
<path d="M235.902 1459L412 1627.4V1628.33L234.931 1459H235.902Z" fill="#F0F0F0"/>
<path d="M255.52 1459L412 1608.64V1609.57L254.549 1459H255.52Z" fill="#F0F0F0"/>
<path d="M275.138 1459L412 1589.88V1590.81L274.167 1459H275.138Z" fill="#F0F0F0"/>
<path d="M294.756 1459L412 1571.12V1572.05L293.785 1459H294.756Z" fill="#F0F0F0"/>
<path d="M314.374 1459L412 1552.36V1553.29L313.403 1459H314.374Z" fill="#F0F0F0"/>
<path d="M333.992 1459L412 1533.6V1534.53L333.021 1459H333.992Z" fill="#F0F0F0"/>
<path d="M353.61 1459L412 1514.84V1515.77L352.639 1459H353.61Z" fill="#F0F0F0"/>
<path d="M373.229 1459L412 1496.08V1497.01L372.257 1459H373.229Z" fill="#F0F0F0"/>
<path d="M392.846 1459L412 1477.32V1478.25L391.876 1459H392.846Z" fill="#F0F0F0"/>
<path d="M412 1459V1459.48L411.493 1459H412Z" fill="#F0F0F0"/>
<path d="M157.43 1459L412 1702.45V1703.38L156.459 1459H157.43Z" fill="#F0F0F0"/>
<path d="M137.812 1459L412 1721.21V1722.14L136.84 1459H137.812Z" fill="#F0F0F0"/>
<path d="M118.194 1459L412 1739.97V1740.9L117.223 1459H118.194Z" fill="#F0F0F0"/>
<path d="M98.5756 1459L412 1758.73V1759.66L97.6047 1459H98.5756Z" fill="#F0F0F0"/>
<path d="M78.9569 1459L412 1777.49V1778.42L77.9861 1459H78.9569Z" fill="#F0F0F0"/>
<path d="M59.3392 1459L412 1796.25V1797.18L58.3684 1459H59.3392Z" fill="#F0F0F0"/>
<path d="M39.7211 1459L412 1815.01V1815.94L38.7502 1459H39.7211Z" fill="#F0F0F0"/>
<path d="M20.1037 1459L412 1833.77V1834.7L19.1328 1459H20.1037Z" fill="#F0F0F0"/>
<path d="M412 1853H411.514L0 1459.46V1459H0.485777L412 1852.54V1853Z" fill="#F0F0F0"/>
<path d="M391.896 1853L0 1478.23V1477.3L392.867 1853H391.896Z" fill="#F0F0F0"/>
<path d="M372.278 1853L0 1496.99V1496.06L373.249 1853H372.278Z" fill="#F0F0F0"/>
<path d="M352.66 1853L0 1515.75V1514.82L353.631 1853H352.66Z" fill="#F0F0F0"/>
<path d="M333.042 1853L0 1534.51V1533.58L334.013 1853H333.042Z" fill="#F0F0F0"/>
<path d="M313.424 1853L0 1553.27V1552.34L314.395 1853H313.424Z" fill="#F0F0F0"/>
<path d="M293.806 1853L0 1572.03V1571.1L294.777 1853H293.806Z" fill="#F0F0F0"/>
<path d="M274.188 1853L0 1590.79V1589.86L275.159 1853H274.188Z" fill="#F0F0F0"/>
<path d="M254.57 1853L0 1609.55V1608.62L255.541 1853H254.57Z" fill="#F0F0F0"/>
<path d="M234.952 1853L0 1628.31V1627.38L235.923 1853H234.952Z" fill="#F0F0F0"/>
<path d="M215.334 1853L0 1647.07V1646.14L216.305 1853H215.334Z" fill="#F0F0F0"/>
<path d="M195.716 1853L0 1665.83V1664.91L196.687 1853H195.716Z" fill="#F0F0F0"/>
<path d="M176.097 1853L0 1684.6V1683.67L177.069 1853H176.097Z" fill="#F0F0F0"/>
<path d="M156.48 1853L0 1703.36V1702.43L157.45 1853H156.48Z" fill="#F0F0F0"/>
<path d="M136.862 1853L0 1722.12V1721.19L137.833 1853H136.862Z" fill="#F0F0F0"/>
<path d="M117.244 1853L0 1740.88V1739.95L118.215 1853H117.244Z" fill="#F0F0F0"/>
<path d="M97.6255 1853L0 1759.64V1758.71L98.5963 1853H97.6255Z" fill="#F0F0F0"/>
<path d="M78.0077 1853L0 1778.4V1777.47L78.9785 1853H78.0077Z" fill="#F0F0F0"/>
<path d="M58.3891 1853L0 1797.16V1796.23L59.3607 1853H58.3891Z" fill="#F0F0F0"/>
<path d="M38.7713 1853L0 1815.92V1814.99L39.7421 1853H38.7713Z" fill="#F0F0F0"/>
<path d="M19.1535 1853L0 1834.68V1833.75L20.1243 1853H19.1535Z" fill="#F0F0F0"/>
<path d="M0 1853V1852.52L0.506525 1853H0Z" fill="#F0F0F0"/>
<path d="M187.004 1459L412 1674.17V1675.09L186.033 1459H187.004Z" fill="#F0F0F0"/>
<path d="M206.622 1459L412 1655.4V1656.33L205.651 1459H206.622Z" fill="#F0F0F0"/>
<path d="M226.241 1459L412 1636.64V1637.57L225.27 1459H226.241Z" fill="#F0F0F0"/>
<path d="M245.858 1459L412 1617.88V1618.81L244.887 1459H245.858Z" fill="#F0F0F0"/>
<path d="M265.477 1459L412 1599.12V1600.05L264.505 1459H265.477Z" fill="#F0F0F0"/>
<path d="M285.095 1459L412 1580.36V1581.29L284.124 1459H285.095Z" fill="#F0F0F0"/>
<path d="M304.713 1459L412 1561.6V1562.53L303.742 1459H304.713Z" fill="#F0F0F0"/>
<path d="M324.331 1459L412 1542.84V1543.77L323.36 1459H324.331Z" fill="#F0F0F0"/>
<path d="M343.949 1459L412 1524.08V1525.01L342.978 1459H343.949Z" fill="#F0F0F0"/>
<path d="M363.567 1459L412 1505.32V1506.25L362.596 1459H363.567Z" fill="#F0F0F0"/>
<path d="M383.185 1459L412 1486.56V1487.48L382.214 1459H383.185Z" fill="#F0F0F0"/>
<path d="M402.803 1459L412 1467.8V1468.72L401.832 1459H402.803Z" fill="#F0F0F0"/>
<path d="M167.386 1459L412 1692.93V1693.85L166.416 1459H167.386Z" fill="#F0F0F0"/>
<path d="M147.769 1459L412 1711.69V1712.62L146.797 1459H147.769Z" fill="#F0F0F0"/>
<path d="M128.15 1459L412 1730.45V1731.38L127.179 1459H128.15Z" fill="#F0F0F0"/>
<path d="M108.532 1459L412 1749.21V1750.14L107.561 1459H108.532Z" fill="#F0F0F0"/>
<path d="M88.9147 1459L412 1767.97V1768.9L87.9431 1459H88.9147Z" fill="#F0F0F0"/>
<path d="M69.2967 1459L412 1786.73V1787.66L68.3252 1459H69.2967Z" fill="#F0F0F0"/>
<path d="M49.6779 1459L412 1805.49V1806.42L48.707 1459H49.6779Z" fill="#F0F0F0"/>
<path d="M30.0602 1459L412 1824.25V1825.18L29.0894 1459H30.0602Z" fill="#F0F0F0"/>
<path d="M10.4423 1459L412 1843.01V1843.94L9.4707 1459H10.4423Z" fill="#F0F0F0"/>
<path d="M401.853 1853L0 1468.7V1467.78L402.824 1853H401.853Z" fill="#F0F0F0"/>
<path d="M382.235 1853L0 1487.46V1486.54L383.206 1853H382.235Z" fill="#F0F0F0"/>
<path d="M362.617 1853L0 1506.23V1505.3L363.587 1853H362.617Z" fill="#F0F0F0"/>
<path d="M342.999 1853L0 1524.99V1524.06L343.97 1853H342.999Z" fill="#F0F0F0"/>
<path d="M323.381 1853L0 1543.75V1542.82L324.352 1853H323.381Z" fill="#F0F0F0"/>
<path d="M303.762 1853L0 1562.51V1561.58L304.733 1853H303.762Z" fill="#F0F0F0"/>
<path d="M284.145 1853L0 1581.27V1580.34L285.115 1853H284.145Z" fill="#F0F0F0"/>
<path d="M264.527 1853L0 1600.03V1599.1L265.498 1853H264.527Z" fill="#F0F0F0"/>
<path d="M244.908 1853L0 1618.79V1617.86L245.88 1853H244.908Z" fill="#F0F0F0"/>
<path d="M225.29 1853L0 1637.55V1636.62L226.261 1853H225.29Z" fill="#F0F0F0"/>
<path d="M205.673 1853L0 1656.31V1655.38L206.643 1853H205.673Z" fill="#F0F0F0"/>
<path d="M186.054 1853L0 1675.07V1674.15L187.026 1853H186.054Z" fill="#F0F0F0"/>
<path d="M166.436 1853L0 1693.84V1692.91L167.407 1853H166.436Z" fill="#F0F0F0"/>
<path d="M146.818 1853L0 1712.6V1711.67L147.789 1853H146.818Z" fill="#F0F0F0"/>
<path d="M127.2 1853L0 1731.36V1730.43L128.171 1853H127.2Z" fill="#F0F0F0"/>
<path d="M107.582 1853L0 1750.12V1749.19L108.553 1853H107.582Z" fill="#F0F0F0"/>
<path d="M87.9643 1853L0 1768.88V1767.95L88.9351 1853H87.9643Z" fill="#F0F0F0"/>
<path d="M68.3465 1853L0 1787.64V1786.71L69.3173 1853H68.3465Z" fill="#F0F0F0"/>
<path d="M48.728 1853L0 1806.4V1805.47L49.6988 1853H48.728Z" fill="#F0F0F0"/>
<path d="M29.1101 1853L0 1825.16V1824.23L30.081 1853H29.1101Z" fill="#F0F0F0"/>
<path d="M9.49233 1853L0 1843.92V1842.99L10.4632 1853H9.49233Z" fill="#F0F0F0"/>
</g>
</svg>
