<svg width="1440" height="691" viewBox="0 0 1440 691" fill="none" xmlns="http://www.w3.org/2000/svg">
<path d="M618.807 0L1440 394.057V395.685L615.414 0H618.807Z" fill="#F0F0F0"/>
<path d="M687.374 0L1440 361.155V362.783L683.98 0H687.374Z" fill="#F0F0F0"/>
<path d="M755.944 0L1440 328.252V329.88L752.55 0H755.944Z" fill="#F0F0F0"/>
<path d="M824.51 0L1440 295.348V296.976L821.117 0H824.51Z" fill="#F0F0F0"/>
<path d="M893.08 0L1440 262.445V264.073L889.684 0H893.08Z" fill="#F0F0F0"/>
<path d="M961.647 0L1440 229.542V231.171L958.254 0H961.647Z" fill="#F0F0F0"/>
<path d="M1030.21 0L1440 196.639V198.268L1026.82 0H1030.21Z" fill="#F0F0F0"/>
<path d="M1098.78 0L1440 163.736V165.364L1095.39 0H1098.78Z" fill="#F0F0F0"/>
<path d="M1167.35 0L1440 130.833V132.462L1163.96 0H1167.35Z" fill="#F0F0F0"/>
<path d="M1235.92 0L1440 97.9293V99.5588L1232.52 0H1235.92Z" fill="#F0F0F0"/>
<path d="M1304.49 0L1440 65.0266V66.6549L1301.09 0H1304.49Z" fill="#F0F0F0"/>
<path d="M1373.06 0L1440 32.1239V33.7522L1369.66 0H1373.06Z" fill="#F0F0F0"/>
<path d="M1440 0V0.849535L1438.23 0H1440Z" fill="#F0F0F0"/>
<path d="M550.24 0L1440 426.961V428.589L546.847 0H550.24Z" fill="#F0F0F0"/>
<path d="M481.672 0L1440 459.864V461.492L478.277 0H481.672Z" fill="#F0F0F0"/>
<path d="M413.106 0L1440 492.766V494.395L409.71 0H413.106Z" fill="#F0F0F0"/>
<path d="M344.536 0L1440 525.669V527.299L341.143 0H344.536Z" fill="#F0F0F0"/>
<path d="M275.966 0L1440 558.573V560.201L272.573 0H275.966Z" fill="#F0F0F0"/>
<path d="M207.4 0L1440 591.476V593.104L204.007 0H207.4Z" fill="#F0F0F0"/>
<path d="M138.832 0L1440 624.378V626.007L135.438 0H138.832Z" fill="#F0F0F0"/>
<path d="M70.2652 0L1440 657.282V658.91L66.8719 0H70.2652Z" fill="#F0F0F0"/>
<path d="M1440 691H1438.3L0 0.814738V0H1.69786L1440 690.185V691Z" fill="#F0F0F0"/>
<path d="M1369.73 691L0 33.7175V32.0892L1373.13 691H1369.73Z" fill="#F0F0F0"/>
<path d="M1301.17 691L0 66.6203V64.9921L1304.56 691H1301.17Z" fill="#F0F0F0"/>
<path d="M1232.6 690.999L0 99.5224V97.8942L1235.99 690.999H1232.6Z" fill="#F0F0F0"/>
<path d="M1164.03 691L0 132.427V130.798L1167.42 691H1164.03Z" fill="#F0F0F0"/>
<path d="M1095.46 691L0 165.329V163.701L1098.86 691H1095.46Z" fill="#F0F0F0"/>
<path d="M1026.89 691L0 198.233V196.604L1030.29 691H1026.89Z" fill="#F0F0F0"/>
<path d="M958.327 691L0 231.136V229.508L961.72 691H958.327Z" fill="#F0F0F0"/>
<path d="M889.76 691L0 264.039V262.41L893.153 691H889.76Z" fill="#F0F0F0"/>
<path d="M821.19 691L0 296.941V295.313L824.586 691H821.19Z" fill="#F0F0F0"/>
<path d="M752.623 691L0 329.845V328.216L756.016 691H752.623Z" fill="#F0F0F0"/>
<path d="M684.056 691L0 362.748V361.12L687.449 691H684.056Z" fill="#F0F0F0"/>
<path d="M615.486 691L0 395.651V394.022L618.882 691H615.486Z" fill="#F0F0F0"/>
<path d="M546.919 690.999L0 428.554V426.926L550.312 690.999H546.919Z" fill="#F0F0F0"/>
<path d="M478.352 690.999L0 461.457V459.829L481.745 690.999H478.352Z" fill="#F0F0F0"/>
<path d="M409.785 690.999L0 494.36V492.731L413.178 690.999H409.785Z" fill="#F0F0F0"/>
<path d="M341.215 691L0 527.264V525.635L344.608 691H341.215Z" fill="#F0F0F0"/>
<path d="M272.648 691L0 560.166V558.538L276.041 691H272.648Z" fill="#F0F0F0"/>
<path d="M204.079 691L0 593.069V591.441L207.474 691H204.079Z" fill="#F0F0F0"/>
<path d="M135.511 690.999L0 625.973V624.343L138.905 690.999H135.511Z" fill="#F0F0F0"/>
<path d="M66.9443 691L0 658.876V657.247L70.3375 691H66.9443Z" fill="#F0F0F0"/>
<path d="M0 691V690.15L1.77038 691H0Z" fill="#F0F0F0"/>
<path d="M653.607 0L1440 377.358V378.986L650.214 0H653.607Z" fill="#F0F0F0"/>
<path d="M722.176 0L1440 344.455V346.084L718.78 0H722.176Z" fill="#F0F0F0"/>
<path d="M790.743 0L1440 311.553V313.181L787.35 0H790.743Z" fill="#F0F0F0"/>
<path d="M859.311 0L1440 278.649V280.277L855.918 0H859.311Z" fill="#F0F0F0"/>
<path d="M927.88 0L1440 245.746V247.374L924.484 0H927.88Z" fill="#F0F0F0"/>
<path d="M996.447 0L1440 212.843V214.472L993.054 0H996.447Z" fill="#F0F0F0"/>
<path d="M1065.02 0L1440 179.939V181.568L1061.62 0H1065.02Z" fill="#F0F0F0"/>
<path d="M1133.58 0L1440 147.037V148.665L1130.19 0H1133.58Z" fill="#F0F0F0"/>
<path d="M1202.15 0L1440 114.134V115.762L1198.76 0H1202.15Z" fill="#F0F0F0"/>
<path d="M1270.72 0L1440 81.2302V82.8597L1267.33 0H1270.72Z" fill="#F0F0F0"/>
<path d="M1339.29 0L1440 48.3275V49.9558L1335.89 0H1339.29Z" fill="#F0F0F0"/>
<path d="M1407.86 0L1440 15.4248V17.0531L1404.46 0H1407.86Z" fill="#F0F0F0"/>
<path d="M585.039 0L1440 410.262V411.89L581.646 0H585.039Z" fill="#F0F0F0"/>
<path d="M516.473 0L1440 443.165V444.793L513.077 0H516.473Z" fill="#F0F0F0"/>
<path d="M447.903 0L1440 476.067V477.696L444.51 0H447.903Z" fill="#F0F0F0"/>
<path d="M379.336 0L1440 508.97V510.599L375.942 0H379.336Z" fill="#F0F0F0"/>
<path d="M310.769 0L1440 541.873V543.502L307.374 0H310.769Z" fill="#F0F0F0"/>
<path d="M242.202 0L1440 574.776V576.405L238.806 0H242.202Z" fill="#F0F0F0"/>
<path d="M173.632 0L1440 607.68V609.309L170.239 0H173.632Z" fill="#F0F0F0"/>
<path d="M105.065 0L1440 640.583V642.211L101.672 0H105.065Z" fill="#F0F0F0"/>
<path d="M36.498 0L1440 673.486V675.114L33.1023 0H36.498Z" fill="#F0F0F0"/>
<path d="M1404.53 691L0 17.0188V15.3905L1407.93 691H1404.53Z" fill="#F0F0F0"/>
<path d="M1335.97 691L0 49.921V48.2927L1339.36 691H1335.97Z" fill="#F0F0F0"/>
<path d="M1267.4 691L0 82.8236V81.1953L1270.79 691H1267.4Z" fill="#F0F0F0"/>
<path d="M1198.83 691L0 115.728V114.099L1202.22 691H1198.83Z" fill="#F0F0F0"/>
<path d="M1130.26 691L0 148.63V147.002L1133.66 691H1130.26Z" fill="#F0F0F0"/>
<path d="M1061.69 690.999L0 181.533V179.904L1065.09 690.999H1061.69Z" fill="#F0F0F0"/>
<path d="M993.127 690.999L0 214.437V212.808L996.52 690.999H993.127Z" fill="#F0F0F0"/>
<path d="M924.56 690.999L0 247.339V245.711L927.953 690.999H924.56Z" fill="#F0F0F0"/>
<path d="M855.99 690.999L0 280.242V278.614L859.386 690.999H855.99Z" fill="#F0F0F0"/>
<path d="M787.423 691L0 313.146V311.518L790.816 691H787.423Z" fill="#F0F0F0"/>
<path d="M718.856 691L0 346.049V344.42L722.249 691H718.856Z" fill="#F0F0F0"/>
<path d="M650.286 691L0 378.951V377.323L653.682 691H650.286Z" fill="#F0F0F0"/>
<path d="M581.719 691L0 411.855V410.227L585.112 691H581.719Z" fill="#F0F0F0"/>
<path d="M513.152 691L0 444.758V443.13L516.545 691H513.152Z" fill="#F0F0F0"/>
<path d="M444.582 691L0 477.661V476.032L447.978 691H444.582Z" fill="#F0F0F0"/>
<path d="M376.015 691L0 510.565V508.935L379.408 691H376.015Z" fill="#F0F0F0"/>
<path d="M307.448 690.999L0 543.467V541.839L310.841 690.999H307.448Z" fill="#F0F0F0"/>
<path d="M238.881 691L0 576.37V574.742L242.274 691H238.881Z" fill="#F0F0F0"/>
<path d="M170.311 691L0 609.273V607.645L173.705 691H170.311Z" fill="#F0F0F0"/>
<path d="M101.744 691L0 642.176V640.548L105.137 691H101.744Z" fill="#F0F0F0"/>
<path d="M33.1771 691L0 675.079V673.451L36.5703 691H33.1771Z" fill="#F0F0F0"/>
</svg>
